<?xml version="1.0" encoding="UTF-8" standalone="no"?><!DOCTYPE svg PUBLIC "-//W3C//DTD SVG 1.1//EN" "http://www.w3.org/Graphics/SVG/1.1/DTD/svg11.dtd"><svg width="100%" height="100%" viewBox="0 0 267 267" version="1.1" xmlns="http://www.w3.org/2000/svg" xmlns:xlink="http://www.w3.org/1999/xlink" xml:space="preserve" xmlns:serif="http://www.serif.com/" style="fill-rule:evenodd;clip-rule:evenodd;stroke-linecap:round;stroke-linejoin:round;stroke-miterlimit:1.5;"><circle cx="133.333" cy="133.333" r="133.333" style="fill:#7d7d7d;"/><path d="M83.381,159.564l13.068,0l2.841,19.792c0.126,0.947 0.694,1.847 1.704,2.699c1.01,0.852 1.863,1.531 2.557,2.036c1.642,1.073 3.409,2.131 5.303,3.172c1.894,1.042 3.914,1.973 6.061,2.794c2.146,0.821 4.435,1.483 6.865,1.988c2.431,0.506 5.003,0.758 7.718,0.758c5.177,0 9.833,-0.537 13.968,-1.61c4.135,-1.073 7.623,-2.636 10.464,-4.687c2.841,-2.052 5.019,-4.53 6.534,-7.434c1.515,-2.904 2.273,-6.155 2.273,-9.754c-0,-5.555 -1.689,-10.164 -5.067,-13.826c-3.377,-3.661 -7.938,-6.691 -13.683,-9.09c-2.841,-1.137 -5.651,-2.21 -8.428,-3.22c-2.778,-1.01 -5.524,-2.005 -8.239,-2.983c-2.715,-0.979 -5.398,-1.941 -8.049,-2.888c-2.652,-0.947 -5.24,-1.957 -7.765,-3.031c-7.829,-3.283 -14,-7.86 -18.514,-13.731c-4.513,-5.871 -6.77,-12.942 -6.77,-21.212c-0,-5.492 1.231,-10.559 3.693,-15.199c2.462,-4.64 5.824,-8.649 10.085,-12.026c4.261,-3.378 9.28,-6.014 15.057,-7.907c5.776,-1.894 11.979,-2.841 18.608,-2.841c4.04,-0 7.939,0.189 11.695,0.568c3.756,0.379 7.355,0.868 10.795,1.468c3.441,0.599 6.771,1.262 9.991,1.988c3.22,0.726 6.313,1.405 9.28,2.036l0,35.985l-12.973,0l-2.841,-18.845c-0.127,-0.883 -0.695,-1.767 -1.705,-2.651c-1.01,-0.884 -1.894,-1.578 -2.651,-2.083c-1.01,-0.695 -2.163,-1.389 -3.457,-2.084c-1.294,-0.694 -2.762,-1.326 -4.403,-1.894c-1.642,-0.568 -3.472,-1.026 -5.493,-1.373c-2.02,-0.347 -4.261,-0.521 -6.723,-0.521c-4.735,0 -8.949,0.505 -12.642,1.515c-3.693,1.011 -6.803,2.384 -9.328,4.12c-2.525,1.736 -4.451,3.772 -5.776,6.108c-1.326,2.336 -1.989,4.829 -1.989,7.481c0,2.399 0.316,4.735 0.947,7.007c0.631,2.273 1.705,4.435 3.22,6.487c1.515,2.052 3.567,3.962 6.155,5.729c2.588,1.768 5.84,3.378 9.754,4.83c2.588,0.947 5.145,1.878 7.67,2.793c2.526,0.916 5.067,1.847 7.623,2.794c2.557,0.947 5.177,1.941 7.86,2.983c2.683,1.042 5.508,2.194 8.476,3.456c3.219,1.389 6.392,3.062 9.517,5.019c3.125,1.957 5.918,4.341 8.38,7.15c2.462,2.809 4.451,6.108 5.966,9.896c1.515,3.788 2.273,8.207 2.273,13.257c-0,5.24 -1.026,10.307 -3.078,15.199c-2.051,4.893 -5.271,9.233 -9.659,13.021c-4.387,3.788 -10.038,6.818 -16.951,9.091c-6.912,2.273 -15.198,3.409 -24.857,3.409c-3.41,0 -6.976,-0.268 -10.701,-0.805c-3.725,-0.537 -7.513,-1.215 -11.364,-2.036c-3.851,-0.821 -7.733,-1.752 -11.648,-2.793c-3.914,-1.042 -7.796,-2.068 -11.647,-3.078l-0,-37.027Z" style="fill:#fff;fill-rule:nonzero;"/><circle cx="133.333" cy="133.333" r="104.167" style="fill:none;stroke:#565656;stroke-width:12.5px;"/><circle cx="133.333" cy="133.333" r="127.083" style="fill:none;stroke:#565656;stroke-width:12.5px;"/></svg>